<?xml version="1.0" encoding="UTF-8" standalone="no"?>
<svg
   width="178.6638"
   height="152.92204"
   viewBox="0 0 178.6638 152.92204"
   version="1.1"
   xml:space="preserve"
   style="clip-rule:evenodd;fill-rule:evenodd;stroke-linejoin:round;stroke-miterlimit:2"
   id="svg255"
   sodipodi:docname="scroll.svg"
   inkscape:version="1.1.2 (b8e25be833, 2022-02-05)"
   xmlns:inkscape="http://www.inkscape.org/namespaces/inkscape"
   xmlns:sodipodi="http://sodipodi.sourceforge.net/DTD/sodipodi-0.dtd"
   xmlns="http://www.w3.org/2000/svg"
   xmlns:svg="http://www.w3.org/2000/svg"><defs
     id="defs259" /><sodipodi:namedview
     id="namedview257"
     pagecolor="#ffffff"
     bordercolor="#666666"
     borderopacity="1.0"
     inkscape:pageshadow="2"
     inkscape:pageopacity="0.0"
     inkscape:pagecheckerboard="0"
     showgrid="false"
     inkscape:lockguides="false"
     inkscape:zoom="3.829634"
     inkscape:cx="130.29966"
     inkscape:cy="84.995067"
     inkscape:window-width="2400"
     inkscape:window-height="1411"
     inkscape:window-x="-2409"
     inkscape:window-y="-162"
     inkscape:window-maximized="1"
     inkscape:current-layer="svg255" /><path
     d="m 33.784732,40.155059 v 16.36481 c 0,6.99054 5.67314,12.66292 12.66592,12.66292 6.9995,0 12.6786,-5.66342 12.6786,-12.66292 v -16.36481 c 0,-6.98979 -5.67313,-12.671894 -12.6786,-12.671894 -6.99278,0 -12.66592,5.682104 -12.66592,12.671894 m 59.07995,1.56924 v 69.479451 c 0,23.03402 -18.66935,41.7183 -41.722051,41.7183 h -9.42134 C 18.674561,152.92205 0,134.24674 0,111.20375 V 41.724299 C 0,18.783667 18.513151,0.189801 41.403711,0.015692 v 18.1485 c -9.00439,2.027292 -15.68631,9.337653 -15.68631,18.093207 v 24.17657 c 0,10.34346 9.265921,18.73435 20.71456,18.73435 11.451621,0 20.72353,-8.39089 20.72353,-18.73435 v -24.17657 c 0,-9.209884 -7.35669,-16.804193 -17.02463,-18.385386 V 0 h 1.0185 c 23.04897,0 41.727271,18.6656 41.71532,41.724299"
     style="fill-rule:nonzero;stroke-width:0.747251;fill:#6998ab;fill-opacity:1"
     id="path198" /><path
     d="m 134.5087,119.34999 c -2.25745,-2.28211 -2.25745,-5.9683 0,-8.22575 L 165.17441,76.460754 134.5087,41.797994 c -2.25745,-2.27314 -2.25745,-5.966054 0,-8.226489 2.27015,-2.269404 5.96606,-2.269404 8.22649,0 l 34.23309,38.698669 c 1.16422,1.15225 1.71868,2.67739 1.69402,4.19058 0.0344,1.51319 -0.52009,3.02936 -1.67235,4.17862 l -34.23309,38.710616 c -2.2821,2.27015 -5.96605,2.27015 -8.24816,0"
     style="clip-rule:evenodd;fill-rule:nonzero;stroke-width:0.747251;stroke-linejoin:round;stroke-miterlimit:2;fill:#6998ab;fill-opacity:1"
     id="path24"
     sodipodi:nodetypes="ccccccccccc" /></svg>
