<?xml version="1.0" encoding="UTF-8" standalone="no"?>
<svg
   width="600"
   height="280"
   viewBox="0 0 600 280"
   fill="none"
   version="1.1"
   id="svg222"
   sodipodi:docname="vials.svg"
   inkscape:version="1.1.2 (b8e25be833, 2022-02-05)"
   xmlns:inkscape="http://www.inkscape.org/namespaces/inkscape"
   xmlns:sodipodi="http://sodipodi.sourceforge.net/DTD/sodipodi-0.dtd"
   xmlns="http://www.w3.org/2000/svg"
   xmlns:svg="http://www.w3.org/2000/svg">
  <defs
     id="defs226" />
  <sodipodi:namedview
     id="namedview224"
     pagecolor="#ffffff"
     bordercolor="#999999"
     borderopacity="1"
     inkscape:pageshadow="0"
     inkscape:pageopacity="0"
     inkscape:pagecheckerboard="0"
     showgrid="false"
     inkscape:zoom="2.82"
     inkscape:cx="352.30496"
     inkscape:cy="163.29787"
     inkscape:window-width="2400"
     inkscape:window-height="1411"
     inkscape:window-x="-2409"
     inkscape:window-y="-162"
     inkscape:window-maximized="1"
     inkscape:current-layer="g287696"
     showguides="true"
     inkscape:guide-bbox="true"
     width="1257px" />
  <g
     id="g354054"
     transform="matrix(0.54703398,0,0,0.54703398,-53.15883,-188.80815)">
    <g
       id="g4795"
       transform="translate(0,86.051521)">
      <g
         id="g287653"
         transform="translate(-42.907801,16.790553)">
        <path
           id="path4"
           style="opacity:0.8;fill:#adc8d2;fill-opacity:0.992157;stroke-width:0.408592"
           d="m 741.50195,350.54477 v 157.5939 c -47.44421,11.25963 -80.78374,51.85636 -80.88867,98.4961 0.11631,31.51975 15.54266,61.20748 41.76758,80.38085 h 129.72656 c 26.2249,-19.17337 41.65128,-48.8611 41.76758,-80.38085 0,-46.71987 -33.36307,-87.43188 -80.88867,-98.71094 V 350.54477 Z"
           sodipodi:nodetypes="ccccccccc" />
        <path
           id="path97744"
           style="fill:#e96228;fill-opacity:1;stroke-width:0.370778"
           d="m 683.05466,560.79493 c -8.00473,13.47397 -12.53649,28.96448 -12.57319,45.27873 0.10557,28.60271 14.10424,55.54293 37.90213,72.94187 h 117.72086 c 23.79782,-17.39894 37.79659,-44.33916 37.90215,-72.94187 0,-16.30503 -4.49324,-31.79563 -12.45815,-45.27873 z" />
        <rect
           x="735.37396"
           y="339.70078"
           width="63.740376"
           height="13.074948"
           rx="2.8601451"
           fill="#6998ab"
           id="rect104621"
           style="fill:#76a2b3;fill-opacity:1;stroke-width:0.408592" />
        <g
           id="g135248"
           transform="matrix(0,1.5655524,-1.5655524,0,1700.5612,-626.91824)"
           style="fill:#ef7f4f;fill-opacity:1">
          <circle
             cx="781.72223"
             cy="572.85675"
             fill="#EA7C5A"
             id="circle92363"
             style="fill:#ef7f4f;fill-opacity:1;stroke-width:0.408592"
             r="2.2472568" />
          <circle
             cx="799.70026"
             cy="569.17944"
             fill="#EA7C5A"
             id="circle92365"
             style="fill:#ef7f4f;fill-opacity:1;stroke-width:0.408592"
             r="2.2472568" />
          <circle
             cx="764.96991"
             cy="577.35132"
             fill="#EA7C5A"
             id="circle92367"
             style="fill:#ef7f4f;fill-opacity:1;stroke-width:0.408592"
             r="2.2472568" />
          <circle
             cx="791.93695"
             cy="582.66302"
             fill="#EA7C5A"
             id="circle92369"
             style="fill:#ef7f4f;fill-opacity:1;stroke-width:0.408592"
             r="2.2472568" />
          <circle
             cx="767.42151"
             cy="607.58716"
             fill="#EA7C5A"
             id="circle92371"
             style="fill:#ef7f4f;fill-opacity:1;stroke-width:0.408592"
             r="2.2472568" />
          <circle
             cx="790.71124"
             cy="619.43628"
             fill="#EA7C5A"
             id="circle92373"
             style="fill:#ef7f4f;fill-opacity:1;stroke-width:0.408592"
             r="3.473033" />
          <circle
             cx="777.02338"
             cy="624.5437"
             fill="#EA7C5A"
             id="circle92375"
             style="fill:#ef7f4f;fill-opacity:1;stroke-width:0.408592"
             r="4.9031053" />
          <circle
             cx="786.01239"
             cy="606.97424"
             fill="#EA7C5A"
             id="circle92377"
             style="fill:#ef7f4f;fill-opacity:1;stroke-width:0.408592"
             r="4.9031053" />
          <circle
             cx="800.92609"
             cy="596.96375"
             fill="#EA7C5A"
             id="circle92379"
             style="fill:#ef7f4f;fill-opacity:1;stroke-width:0.408592"
             r="3.473033" />
          <circle
             cx="773.14178"
             cy="585.93176"
             fill="#EA7C5A"
             id="circle92381"
             style="fill:#ef7f4f;fill-opacity:1;stroke-width:0.408592"
             r="3.473033" />
        </g>
        <circle
           style="fill:#ececec;fill-opacity:0.960784"
           id="path135350"
           cx="809.91309"
           cy="537.10028"
           r="9.528389" />
      </g>
      <rect
         style="opacity:1;fill:#172e40;fill-opacity:1;stroke-width:0.662082"
         id="rect246661"
         width="970.91345"
         height="67.051254"
         x="160.13173"
         y="703.89728"
         rx="2.9616988" />
      <g
         id="g287696"
         transform="translate(22.695036,325.42883)">
        <path
           id="rect164175"
           style="opacity:0.8;fill:#adc8d2;fill-opacity:1;stroke-width:0.409"
           d="m 437.31142,155.52296 h 31.35627 c 4.72778,0 8.5339,1.80612 8.5339,6.5339 v 75.0872 l 80,132.69939 c 2.44095,4.04891 -3.80612,8.5339 -8.5339,8.5339 H 357.31142 c -4.72778,0 -10.97569,-4.4855 -8.53389,-8.5339 l 80,-132.63671 v -75.14988 c 0,-4.72778 3.80611,-6.5339 8.53389,-6.5339 z"
           sodipodi:nodetypes="ssscsssscss" />
        <rect
           x="421.11923"
           y="-164.27484"
           width="63.740376"
           height="13.074948"
           rx="2.8601451"
           fill="#6998ab"
           id="rect161423"
           style="fill:#76a2b3;fill-opacity:1;stroke-width:0.408592"
           transform="scale(1,-1)" />
        <path
           id="path171223"
           style="opacity:1;fill:#efc41d;fill-opacity:1;stroke-width:0.409"
           d="m 411.79575,281.34375 -47.04102,80.5 c -2.29306,4.13447 3.80543,8.5332 8.53321,8.5332 h 159.35742 c 4.72778,0 10.96516,-4.47888 8.5332,-8.5332 l -48.28711,-80.5 z"
           sodipodi:nodetypes="ccssccc" />
        <g
           id="g239861"
           transform="matrix(-0.91177507,0.84137087,0.84137087,0.91177507,682.69983,-875.94979)"
           style="fill:#efd920;fill-opacity:1">
          <circle
             cx="781.72223"
             cy="572.85675"
             fill="#EA7C5A"
             id="circle239841"
             style="fill:#efd920;fill-opacity:1;stroke-width:0.408592"
             r="2.2472568" />
          <circle
             cx="799.70026"
             cy="569.17944"
             fill="#EA7C5A"
             id="circle239843"
             style="fill:#efd920;fill-opacity:1;stroke-width:0.408592"
             r="2.2472568" />
          <circle
             cx="764.96991"
             cy="577.35132"
             fill="#EA7C5A"
             id="circle239845"
             style="fill:#efd920;fill-opacity:1;stroke-width:0.408592"
             r="2.2472568" />
          <circle
             cx="791.93695"
             cy="582.66302"
             fill="#EA7C5A"
             id="circle239847"
             style="fill:#efd920;fill-opacity:1;stroke-width:0.408592"
             r="2.2472568" />
          <circle
             cx="767.42151"
             cy="607.58716"
             fill="#EA7C5A"
             id="circle239849"
             style="fill:#efd920;fill-opacity:1;stroke-width:0.408592"
             r="2.2472568" />
          <circle
             cx="790.71124"
             cy="619.43628"
             fill="#EA7C5A"
             id="circle239851"
             style="fill:#efd920;fill-opacity:1;stroke-width:0.408592"
             r="3.473033" />
          <circle
             cx="777.02338"
             cy="624.5437"
             fill="#EA7C5A"
             id="circle239853"
             style="fill:#efd920;fill-opacity:1;stroke-width:0.408592"
             r="4.9031053" />
          <circle
             cx="786.01239"
             cy="606.97424"
             fill="#EA7C5A"
             id="circle239855"
             style="fill:#efd920;fill-opacity:1;stroke-width:0.408592"
             r="4.9031053" />
          <circle
             cx="800.92609"
             cy="596.96375"
             fill="#EA7C5A"
             id="circle239857"
             style="fill:#efd920;fill-opacity:1;stroke-width:0.408592"
             r="3.473033" />
          <circle
             cx="773.14178"
             cy="585.93176"
             fill="#EA7C5A"
             id="circle239859"
             style="fill:#efd920;fill-opacity:1;stroke-width:0.408592"
             r="3.473033" />
        </g>
        <circle
           style="fill:#ececec;fill-opacity:0.960784;stroke-width:0.648865"
           id="circle264842"
           cx="473.74731"
           cy="258.4342"
           r="6.1826339" />
      </g>
      <g
         id="g287677"
         transform="matrix(-1,0,0,1,1454.9797,19.732628)">
        <path
           opacity="0.8"
           d="m 533.66345,455.08022 h 51.4826 v 217.72739 h -51.4826 z"
           fill="#6998ab"
           id="path8"
           style="opacity:0.8;fill:#adc9d3;fill-opacity:0.992157;stroke-width:0.408592"
           sodipodi:nodetypes="ccccc" />
        <rect
           x="527.53455"
           y="444.04825"
           width="63.740376"
           height="13.074948"
           rx="2.8601451"
           fill="#6998ab"
           id="rect14"
           style="fill:#76a2b3;fill-opacity:1;stroke-width:0.408592" />
        <path
           d="m 537.73774,510.24096 c 0,0 7.22221,3.63814 15.30458,1.53165 8.08199,-2.10611 8.25418,-4.78707 17.53993,-4.78707 9.28576,0 10.48952,4.02125 10.48952,4.02125 v 139.75335 c 0,11.96633 -9.7007,15.46135 -21.66702,15.46135 -11.96632,0 -21.66701,-3.49502 -21.66701,-15.46135 z"
           fill="#BBBE20"
           id="path18"
           style="fill:#17d7a0;fill-opacity:1;stroke-width:0.383487"
           sodipodi:nodetypes="ccscsssc" />
        <g
           id="g263338">
          <circle
             cx="549.8028"
             cy="576.22778"
             r="2.2472568"
             fill="#CCCF29"
             id="circle54"
             style="fill:#21c797;fill-opacity:1;stroke-width:0.408592" />
          <path
             d="m 565.73793,582.96956 c 0,1.24131 -1.00595,2.24726 -2.24726,2.24726 -1.24131,0 -2.24726,-1.00595 -2.24726,-2.24726 0,-1.24129 1.00595,-2.24725 2.24726,-2.24725 1.24131,0 2.24726,1.00596 2.24726,2.24725 z"
             fill="#CCCF29"
             id="path56"
             style="fill:#21c797;fill-opacity:1;stroke-width:0.408592" />
          <circle
             cx="557.97461"
             cy="521.47644"
             r="2.2472568"
             fill="#CCCF29"
             id="circle58"
             style="fill:#21c797;fill-opacity:1;stroke-width:0.408592" />
          <circle
             cx="541.63098"
             cy="519.43353"
             r="2.2472568"
             fill="#CCCF29"
             id="circle60"
             style="fill:#21c797;fill-opacity:1;stroke-width:0.408592" />
          <path
             d="m 565.12504,536.59436 c 0,1.2413 -1.00596,2.24726 -2.24726,2.24726 -1.2413,0 -2.24725,-1.00596 -2.24725,-2.24726 0,-1.24131 1.00595,-2.24726 2.24725,-2.24726 1.2413,0 2.24726,1.00595 2.24726,2.24726 z"
             fill="#CCCF29"
             id="path62"
             style="fill:#21c797;fill-opacity:1;stroke-width:0.408592" />
          <path
             d="m 560.63053,550.2822 c 0,1.2413 -1.00596,2.24725 -2.24726,2.24725 -1.24131,0 -2.24726,-1.00595 -2.24726,-2.24725 0,-1.24131 1.00595,-2.24726 2.24726,-2.24726 1.2413,0 2.24726,1.00595 2.24726,2.24726 z"
             fill="#CCCF29"
             id="path64"
             style="fill:#21c797;fill-opacity:1;stroke-width:0.408592" />
          <circle
             cx="543.67395"
             cy="531.69122"
             r="2.2472568"
             fill="#CCCF29"
             id="circle66"
             style="fill:#21c797;fill-opacity:1;stroke-width:0.408592" />
          <circle
             cx="571.04962"
             cy="518.61633"
             r="2.2472568"
             fill="#CCCF29"
             id="circle68"
             style="fill:#21c797;fill-opacity:1;stroke-width:0.408592" />
          <circle
             cx="569.82385"
             cy="565.60443"
             r="3.473033"
             fill="#CCCF29"
             id="circle70"
             style="fill:#21c797;fill-opacity:1;stroke-width:0.408592" />
          <circle
             cx="572.88824"
             cy="545.78766"
             r="4.9031053"
             fill="#CCCF29"
             id="circle72"
             style="fill:#21c797;fill-opacity:1;stroke-width:0.408592" />
          <circle
             cx="543.87823"
             cy="543.74475"
             r="4.9031053"
             fill="#CCCF29"
             id="circle74"
             style="fill:#21c797;fill-opacity:1;stroke-width:0.408592" />
          <circle
             cx="555.9317"
             cy="562.33563"
             r="5.9245858"
             fill="#CCCF29"
             id="circle76"
             style="fill:#21c797;fill-opacity:1;stroke-width:0.408592" />
          <circle
             cx="574.72693"
             cy="534.14282"
             r="3.473033"
             fill="#CCCF29"
             id="circle78"
             style="fill:#21c797;fill-opacity:1;stroke-width:0.408592" />
          <circle
             cx="552.25439"
             cy="530.87408"
             r="3.473033"
             fill="#CCCF29"
             id="circle80"
             style="fill:#21c797;fill-opacity:1;stroke-width:0.408592" />
        </g>
        <rect
           x="527.53455"
           y="670.9986"
           width="63.740376"
           height="13.074948"
           rx="2.8601451"
           fill="#6998ab"
           id="rect110021"
           style="fill:#76a2b3;fill-opacity:1;stroke-width:0.408592" />
        <circle
           style="fill:#ececec;fill-opacity:0.960784;stroke-width:0.5"
           id="circle264844"
           cx="544.87347"
           cy="490.71207"
           r="4.764194" />
      </g>
    </g>
  </g>
</svg>
